<?xml version="1.0" encoding="utf-8"?>
<!-- Generator: Adobe Illustrator 24.0.2, SVG Export Plug-In . SVG Version: 6.00 Build 0)  -->
<svg version="1.1" id="Layer_1" xmlns="http://www.w3.org/2000/svg" xmlns:xlink="http://www.w3.org/1999/xlink" x="0px" y="0px"
	 viewBox="0 0 256 256" style="enable-background:new 0 0 256 256;" xml:space="preserve">
<style type="text/css">
	.st0{fill:none;stroke:#000000;stroke-width:6;stroke-miterlimit:10;}
	.st1{fill:none;stroke:#000000;stroke-width:4;stroke-miterlimit:10;}
</style>
<path class="st0" d="M31.39,244.12c-5.2-4.67,19.12-62.43,19.12-62.43L163.37,55.53l41.26,36.94L91.35,218.42
	C91.35,218.42,36.59,248.79,31.39,244.12z"/>
<path class="st0" d="M209.39,5.03c3.06-3.4,43.34,33.96,40.84,36.74s-27.45,30.52-27.45,30.52l-40.84-36.74
	C181.94,35.55,206.33,8.44,209.39,5.03z"/>
<rect x="179.49" y="35.78" transform="matrix(0.6687 -0.7435 0.7435 0.6687 16.4305 164.7779)" class="st0" width="27.26" height="56.35"/>
<line class="st1" x1="210.97" y1="70.71" x2="184.87" y2="47.24"/>
<line class="st1" x1="206.61" y1="75.55" x2="180.52" y2="52.08"/>
<line class="st1" x1="202.26" y1="80.39" x2="176.16" y2="56.92"/>
</svg>
